<svg width="32" height="32" viewBox="0 0 32 32" fill="none" xmlns="http://www.w3.org/2000/svg">
  <defs>
    <linearGradient id="badge" x1="16" y1="1" x2="16" y2="31" gradientUnits="userSpaceOnUse">
      <stop offset="0" stop-color="#3BB4E6"/>
      <stop offset="0.55" stop-color="#1E9FD8"/>
      <stop offset="1" stop-color="#1687C1"/>
    </linearGradient>
    <clipPath id="badgeClip">
      <circle cx="16" cy="16" r="15"/>
    </clipPath>
  </defs>

  <!-- Badge -->
  <circle cx="16" cy="16" r="15" fill="url(#badge)"/>

  <!-- Skyline -->
  <g clip-path="url(#badgeClip)">
    <rect x="0" y="24.5" width="32" height="8" fill="#0F2942"/>
    <path d="M7 24.5 V21 Q7 20 8 20 H10.5 Q11.5 20 11.5 21 V24.5 Z" fill="#0F2942"/>
    <path d="M16 18.5 L14 24.5 L18 24.5 Z" fill="#0F2942"/>
    <rect x="21" y="21" width="3.5" height="3.5" fill="#0F2942"/>
    <path d="M20.5 21 L22.75 18 L25 21 Z" fill="#0F2942"/>
  </g>

  <!-- Antenna -->
  <line x1="16" y1="8" x2="16" y2="6" stroke="#FFFFFF" stroke-width="1.6" stroke-linecap="round"/>
  <circle cx="16" cy="5.4" r="1.5" fill="#FFFFFF"/>

  <!-- Ears -->
  <rect x="6.4" y="12" width="1.8" height="4" rx="0.9" fill="#FFFFFF"/>
  <rect x="23.8" y="12" width="1.8" height="4" rx="0.9" fill="#FFFFFF"/>

  <!-- Head -->
  <rect x="8" y="8" width="16" height="12.5" rx="5.5" fill="#FFFFFF"/>

  <!-- Face screen -->
  <rect x="9.8" y="10" width="12.4" height="8" rx="3.6" fill="#0F2942"/>

  <!-- Eyes -->
  <circle cx="13" cy="14" r="1.7" fill="#1E9FD8"/>
  <circle cx="19" cy="14" r="1.7" fill="#1E9FD8"/>

  <!-- Smile -->
  <path d="M13 16.2 Q16 18 19 16.2" stroke="#1E9FD8" stroke-width="0.9" stroke-linecap="round" fill="none"/>
</svg>
